<svg width="40" height="40" viewBox="0 0 40 40" fill="none" xmlns="http://www.w3.org/2000/svg">
<path d="M19.9998 0.999019C30.4932 0.999019 38.9998 9.50561 38.9998 19.999C38.9998 30.4924 30.4932 38.999 19.9998 38.999C9.50635 38.999 0.999756 30.4924 0.999756 19.999C0.999756 9.50561 9.50635 0.999019 19.9998 0.999019Z" stroke="white" stroke-width="2"/>
<path d="M27.7271 21.0597C28.3129 20.4739 28.3129 19.5241 27.7271 18.9384L18.1812 9.39242C17.5954 8.80663 16.6456 8.80663 16.0599 9.39242C15.4741 9.97821 15.4741 10.928 16.0599 11.5137L24.5451 19.999L16.0599 28.4843C15.4741 29.0701 15.4741 30.0198 16.0599 30.6056C16.6456 31.1914 17.5954 31.1914 18.1812 30.6056L27.7271 21.0597ZM25.3331 21.499H26.6665V18.499H25.3331V21.499Z" fill="white"/>
</svg>
